<svg id="visual" viewBox="0 0 900 600" width="900" height="600" xmlns="http://www.w3.org/2000/svg" xmlns:xlink="http://www.w3.org/1999/xlink" version="1.1"><path d="M0 175L180 211L360 199L540 169L720 157L900 211L900 0L720 0L540 0L360 0L180 0L0 0Z" fill="#00cc8e"></path><path d="M0 283L180 319L360 301L540 313L720 259L900 319L900 209L720 155L540 167L360 197L180 209L0 173Z" fill="#00b388"></path><path d="M0 493L180 499L360 493L540 505L720 493L900 511L900 317L720 257L540 311L360 299L180 317L0 281Z" fill="#009b7f"></path><path d="M0 601L180 601L360 601L540 601L720 601L900 601L900 509L720 491L540 503L360 491L180 497L0 491Z" fill="#038373"></path></svg>